<svg width="48" height="48" viewBox="0 0 48 48" fill="green" xmlns="http://www.w3.org/2000/svg">
<path d="M24.0002 26.1L13.5002 36.5999C13.2002 36.8999 12.8502 37.0499 12.4502 37.0499C12.0502 37.0499 11.7002 36.8999 11.4002 36.5999C11.1002 36.2999 10.9502 35.9499 10.9502 35.5499C10.9502 35.15 11.1002 34.7999 11.4002 34.5L21.9002 24L11.4002 13.5C11.1002 13.2 10.9502 12.85 10.9502 12.45C10.9502 12.05 11.1002 11.7 11.4002 11.4C11.7002 11.1 12.0502 10.95 12.4502 10.95C12.8502 10.95 13.2002 11.1 13.5002 11.4L24.0002 21.9L34.5002 11.4C34.8002 11.1 35.1502 10.95 35.5502 10.95C35.9502 10.95 36.3002 11.1 36.6002 11.4C36.9002 11.7 37.0502 12.05 37.0502 12.45C37.0502 12.85 36.9002 13.2 36.6002 13.5L26.1002 24L36.6002 34.5C36.9002 34.7999 37.0502 35.15 37.0502 35.5499C37.0502 35.9499 36.9002 36.2999 36.6002 36.5999C36.3002 36.8999 35.9502 37.0499 35.5502 37.0499C35.1502 37.0499 34.8002 36.8999 34.5002 36.5999L24.0002 26.1Z" fill="#fff"/>
</svg>
